<svg width="40" height="40" viewBox="0 0 40 40" fill="none" xmlns="http://www.w3.org/2000/svg">
<circle cx="20" cy="20" r="19.5" transform="rotate(90 20 20)" stroke="#081F2F"/>
<path d="M12.5956 20.8134L12.5958 20.8136L19.8185 28.0365M12.5956 20.8134L19.8185 28.0365M12.5956 20.8134C12.4649 20.6829 12.3929 20.5092 12.3933 20.3201L12.3933 20.3181C12.3928 20.1307 12.4646 19.9569 12.5957 19.8257C12.5957 19.8256 12.5957 19.8256 12.5958 19.8255L19.8184 12.603C19.9493 12.472 20.1223 12.4001 20.3095 12.4001C20.4984 12.4001 20.6708 12.4715 20.8008 12.6015L20.8012 12.6019L21.4566 13.2553C21.4566 13.2554 21.4567 13.2555 21.4568 13.2555C21.5882 13.387 21.6589 13.5568 21.6589 13.7427C21.6589 13.9274 21.5892 14.0938 21.4567 14.2266C21.4566 14.2266 21.4565 14.2267 21.4565 14.2268L17.1958 18.4727L16.5101 19.156L17.4781 19.156L27.4933 19.156C27.5351 19.156 27.5605 19.1599 27.5745 19.1632C27.5763 19.1686 27.5785 19.1758 27.5807 19.1853C27.5937 19.2391 27.6003 19.3207 27.6 19.4487C27.5999 19.5076 27.5984 19.5696 27.5969 19.6388L27.5966 19.6491C27.595 19.7208 27.5932 19.7993 27.5932 19.8799L27.5932 20.8072C27.5932 20.8879 27.595 20.9655 27.5966 21.0361L27.5969 21.0481C27.5985 21.1154 27.5999 21.1748 27.6 21.2309C27.6003 21.3548 27.5935 21.4277 27.5821 21.4725C27.5817 21.4738 27.5814 21.4751 27.5811 21.4763C27.565 21.4797 27.5372 21.4834 27.4932 21.4834L17.526 21.4834L16.5618 21.4834L17.2428 22.166L21.4564 26.3889L21.4568 26.3893C21.5847 26.5171 21.6591 26.6982 21.6591 26.8894C21.6591 27.0773 21.5872 27.2502 21.4568 27.3804L21.4567 27.3806L20.8011 28.0364M12.5956 20.8134L20.8011 28.0364M19.8185 28.0365C19.9491 28.167 20.1219 28.2387 20.3097 28.2387C20.4977 28.2387 20.6704 28.1669 20.8011 28.0364M19.8185 28.0365L20.8011 28.0364M27.5885 19.1677C27.5885 19.1677 27.588 19.1675 27.5872 19.1671L27.5885 19.1677ZM27.5697 19.1513C27.5692 19.1506 27.5689 19.1502 27.569 19.1501L27.5697 19.1513ZM27.5996 21.4709C27.5996 21.4709 27.5995 21.471 27.5992 21.4711L27.5996 21.4709Z" fill="#081F2F" stroke="#101820" stroke-width="0.8"/>
</svg>
